<svg width="54" height="54" viewBox="0 0 54 54" fill="none" xmlns="http://www.w3.org/2000/svg">
<g clip-path="url(#clip0_3_607)">
<path d="M36.5531 18.9999C36.4622 18.9906 36.3706 18.9906 36.2798 18.9999H17.6131C17.4935 19.0018 17.3746 19.0197 17.2598 19.0533L26.8931 28.6466L36.5531 18.9999Z" fill="#334360"/>
<path d="M37.54 19.9268L27.8333 29.5934C27.5835 29.8418 27.2455 29.9811 26.8933 29.9811C26.541 29.9811 26.2031 29.8418 25.9533 29.5934L16.3333 20.0001C16.3037 20.1088 16.288 20.2208 16.2866 20.3334V33.6668C16.2866 34.0204 16.4271 34.3595 16.6771 34.6096C16.9272 34.8596 17.2663 35.0001 17.62 35.0001H36.2866C36.6402 35.0001 36.9794 34.8596 37.2294 34.6096C37.4795 34.3595 37.62 34.0204 37.62 33.6668V20.3334C37.6146 20.1945 37.5877 20.0573 37.54 19.9268ZM18.5333 33.6668H17.6066V32.7134L22.4533 27.9068L23.3933 28.8468L18.5333 33.6668ZM36.2733 33.6668H35.34L30.48 28.8468L31.42 27.9068L36.2666 32.7134L36.2733 33.6668Z" fill="#334360"/>
</g>
<circle opacity="0.8" cx="27" cy="27" r="26.5" stroke="#334360"/>
<defs>
<clipPath id="clip0_3_607">
<rect width="24" height="24" fill="white" transform="translate(15 15)"/>
</clipPath>
</defs>
</svg>
