<svg width="54" height="54" viewBox="0 0 54 54" fill="none" xmlns="http://www.w3.org/2000/svg">
<g clip-path="url(#clip0_1_286)">
<path d="M36.5533 18.9999C36.4625 18.9906 36.3709 18.9906 36.28 18.9999H17.6133C17.4937 19.0018 17.3749 19.0197 17.26 19.0533L26.8933 28.6466L36.5533 18.9999Z" fill="#F6F6F7"/>
<path d="M37.54 19.9266L27.8333 29.5933C27.5835 29.8416 27.2456 29.981 26.8933 29.981C26.5411 29.981 26.2031 29.8416 25.9533 29.5933L16.3333 20C16.3037 20.1087 16.2881 20.2207 16.2867 20.3333V33.6666C16.2867 34.0203 16.4271 34.3594 16.6772 34.6094C16.9272 34.8595 17.2664 35 17.62 35H36.2866C36.6403 35 36.9794 34.8595 37.2295 34.6094C37.4795 34.3594 37.62 34.0203 37.62 33.6666V20.3333C37.6147 20.1944 37.5877 20.0572 37.54 19.9266ZM18.5333 33.6666H17.6067V32.7133L22.4533 27.9066L23.3933 28.8466L18.5333 33.6666ZM36.2733 33.6666H35.34L30.48 28.8466L31.42 27.9066L36.2666 32.7133L36.2733 33.6666Z" fill="#F6F6F7"/>
</g>
<circle opacity="0.8" cx="27" cy="27" r="26.5" stroke="#F6F6F7"/>
<defs>
<clipPath id="clip0_1_286">
<rect width="24" height="24" fill="white" transform="translate(15 15)"/>
</clipPath>
</defs>
</svg>
