<svg width="54" height="54" viewBox="0 0 54 54" fill="none" xmlns="http://www.w3.org/2000/svg">
<circle opacity="0.8" cx="27" cy="27" r="26.5" stroke="#FAFAFA"/>
<path fill-rule="evenodd" clip-rule="evenodd" d="M34.3552 20.9948C34.3552 21.7404 33.7507 22.3448 33.0052 22.3448C32.2597 22.3448 31.6552 21.7404 31.6552 20.9948C31.6552 20.2491 32.2597 19.6448 33.0052 19.6448C33.7509 19.6448 34.3552 20.2491 34.3552 20.9948ZM27 30.7499C24.9289 30.7499 23.2501 29.0711 23.2501 27C23.2501 24.9289 24.9289 23.2501 27 23.2501C29.0711 23.2501 30.7499 24.9289 30.7499 27C30.7499 29.0711 29.0711 30.7499 27 30.7499ZM27 21.2229C23.8094 21.2229 21.2229 23.8094 21.2229 27C21.2229 30.1906 23.8094 32.7771 27 32.7771C30.1906 32.7771 32.7771 30.1906 32.7771 27C32.7771 23.8094 30.1906 21.2229 27 21.2229ZM27 17.7771C30.0039 17.7771 30.3597 17.7885 31.5459 17.8427C32.6428 17.8928 33.2385 18.0759 33.6349 18.2301C34.1599 18.4342 34.5347 18.678 34.9284 19.0717C35.3222 19.4653 35.566 19.8401 35.7701 20.3653C35.9241 20.7617 36.1074 21.3574 36.1575 22.4543C36.2116 23.6406 36.2231 23.9964 36.2231 27.0004C36.2231 30.0043 36.2116 30.3601 36.1575 31.5462C36.1074 32.6431 35.9242 33.2388 35.7701 33.6352C35.566 34.1603 35.3222 34.535 34.9284 34.9288C34.5349 35.3225 34.1601 35.5663 33.6349 35.7704C33.2385 35.9244 32.6428 36.1078 31.5459 36.1579C30.3597 36.212 30.0039 36.2234 27 36.2234C23.9959 36.2234 23.6401 36.212 22.4539 36.1579C21.3571 36.1078 20.7613 35.9246 20.365 35.7704C19.8399 35.5663 19.4651 35.3225 19.0714 34.9288C18.6778 34.5352 18.4338 34.1604 18.2297 33.6352C18.0758 33.2388 17.8924 32.6431 17.8423 31.5462C17.7882 30.3599 17.7768 30.0041 17.7768 27.0004C17.7768 23.9964 17.7882 23.6406 17.8423 22.4543C17.8924 21.3574 18.0756 20.7617 18.2297 20.3653C18.4338 19.8403 18.6776 19.4655 19.0714 19.0717C19.465 18.678 19.8397 18.4342 20.365 18.2301C20.7613 18.0761 21.3571 17.8928 22.4539 17.8427C23.6403 17.7885 23.9961 17.7771 27 17.7771ZM27 15.75C23.9447 15.75 23.5615 15.763 22.3617 15.8177C21.1642 15.8723 20.3463 16.0625 19.6309 16.3406C18.891 16.628 18.2637 17.0128 17.6382 17.6382C17.0128 18.2637 16.628 18.891 16.3406 19.6309C16.0625 20.3465 15.8723 21.1642 15.8177 22.3617C15.763 23.5615 15.75 23.9447 15.75 27C15.75 30.0553 15.763 30.4385 15.8177 31.6383C15.8723 32.8358 16.0625 33.6535 16.3406 34.3691C16.628 35.109 17.0128 35.7363 17.6382 36.3618C18.2637 36.9872 18.891 37.3718 19.6309 37.6594C20.3465 37.9375 21.1642 38.1277 22.3617 38.1823C23.5615 38.237 23.9447 38.25 27 38.25C30.0553 38.25 30.4385 38.237 31.6383 38.1823C32.8358 38.1277 33.6535 37.9375 34.3691 37.6594C35.109 37.3718 35.7363 36.9872 36.3618 36.3618C36.9872 35.7363 37.3718 35.109 37.6594 34.3691C37.9375 33.6535 38.1277 32.8358 38.1823 31.6383C38.237 30.4385 38.25 30.0553 38.25 27C38.25 23.9447 38.237 23.5615 38.1823 22.3617C38.1277 21.1642 37.9375 20.3465 37.6594 19.6309C37.3718 18.891 36.9872 18.2637 36.3618 17.6382C35.7363 17.0128 35.109 16.6282 34.3691 16.3406C33.6535 16.0625 32.8358 15.8723 31.6383 15.8177C30.4385 15.763 30.0553 15.75 27 15.75Z" fill="#FAFAFA"/>
</svg>
