<svg width="54" height="54" viewBox="0 0 54 54" fill="none" xmlns="http://www.w3.org/2000/svg">
<path d="M30.2477 31.11L31.9277 29.43C32.154 29.2066 32.4403 29.0536 32.7518 28.9897C33.0634 28.9258 33.3867 28.9537 33.6827 29.07L35.7302 29.8875C36.0293 30.0089 36.2858 30.2162 36.4673 30.4831C36.6488 30.75 36.7473 31.0647 36.7502 31.3875V35.1375C36.7485 35.3571 36.7023 35.5741 36.6145 35.7753C36.5267 35.9766 36.3991 36.158 36.2393 36.3087C36.0796 36.4594 35.891 36.5761 35.6849 36.652C35.4788 36.7278 35.2595 36.7612 35.0402 36.75C20.6927 35.8575 17.7977 23.7075 17.2502 19.0575C17.2248 18.8292 17.248 18.598 17.3184 18.3793C17.3887 18.1606 17.5045 17.9592 17.6583 17.7885C17.812 17.6177 18.0002 17.4815 18.2103 17.3887C18.4205 17.2959 18.648 17.2486 18.8777 17.25H22.5002C22.8235 17.251 23.1391 17.3486 23.4064 17.5304C23.6737 17.7122 23.8805 17.9698 24.0002 18.27L24.8177 20.3175C24.9379 20.6123 24.9686 20.936 24.9059 21.2481C24.8432 21.5603 24.6899 21.847 24.4652 22.0725L22.7852 23.7525C22.7852 23.7525 23.7527 30.3 30.2477 31.11Z" fill="#334360"/>
<circle opacity="0.8" cx="27" cy="27" r="26.5" stroke="#334360"/>
</svg>
