<svg width="54" height="54" viewBox="0 0 54 54" fill="none" xmlns="http://www.w3.org/2000/svg">
<path d="M30.2475 31.11L31.9275 29.43C32.1538 29.2066 32.4401 29.0536 32.7516 28.9897C33.0631 28.9258 33.3865 28.9537 33.6825 29.07L35.73 29.8875C36.0291 30.0089 36.2856 30.2162 36.4671 30.4831C36.6486 30.75 36.7471 31.0647 36.75 31.3875V35.1375C36.7483 35.3571 36.7021 35.5741 36.6143 35.7753C36.5265 35.9766 36.3989 36.158 36.2391 36.3087C36.0794 36.4594 35.8908 36.5761 35.6847 36.652C35.4786 36.7278 35.2593 36.7612 35.04 36.75C20.6925 35.8575 17.7975 23.7075 17.25 19.0575C17.2246 18.8292 17.2478 18.598 17.3181 18.3793C17.3885 18.1606 17.5043 17.9592 17.6581 17.7885C17.8118 17.6177 17.9999 17.4815 18.2101 17.3887C18.4203 17.2959 18.6478 17.2486 18.8775 17.25H22.5C22.8233 17.251 23.1388 17.3486 23.4062 17.5304C23.6735 17.7122 23.8803 17.9698 24 18.27L24.8175 20.3175C24.9377 20.6123 24.9684 20.936 24.9057 21.2481C24.843 21.5603 24.6897 21.847 24.465 22.0725L22.785 23.7525C22.785 23.7525 23.7525 30.3 30.2475 31.11Z" fill="#F6F6F7"/>
<circle opacity="0.8" cx="27" cy="27" r="26.5" stroke="#F6F6F7"/>
</svg>
