<svg width="54" height="54" viewBox="0 0 54 54" fill="none" xmlns="http://www.w3.org/2000/svg">
<circle opacity="0.8" cx="27" cy="27" r="26.5" stroke="#334360"/>
<path d="M36.5202 20.98C33.1602 15.8 26.3002 14.26 20.9802 17.48C15.8002 20.7 14.1202 27.7 17.4802 32.88L17.7602 33.3L16.6402 37.5L20.8402 36.38L21.2602 36.66C23.0802 37.64 25.0402 38.2 27.0002 38.2C29.1002 38.2 31.2002 37.64 33.0202 36.52C38.2002 33.16 39.7402 26.3 36.5202 20.98ZM33.5802 31.76C33.0202 32.6 32.3202 33.16 31.3402 33.3C30.7802 33.3 30.0802 33.58 27.2802 32.46C24.9002 31.34 22.9402 29.52 21.5402 27.42C20.7002 26.44 20.2802 25.18 20.1402 23.92C20.1402 22.8 20.5602 21.82 21.2602 21.12C21.5402 20.84 21.8202 20.7 22.1002 20.7H22.8002C23.0802 20.7 23.3602 20.7 23.5002 21.26C23.7802 21.96 24.4802 23.64 24.4802 23.78C24.6202 23.92 24.6202 24.2 24.4802 24.34C24.6202 24.62 24.4802 24.9 24.3402 25.04C24.2002 25.18 24.0602 25.46 23.9202 25.6C23.6402 25.74 23.5002 26.02 23.6402 26.3C24.2002 27.14 24.9002 27.98 25.6002 28.68C26.4402 29.38 27.2802 29.94 28.2602 30.36C28.5402 30.5 28.8202 30.5 28.9602 30.22C29.1002 29.94 29.8002 29.24 30.0802 28.96C30.3602 28.68 30.5002 28.68 30.7802 28.82L33.0202 29.94C33.3002 30.08 33.5802 30.22 33.7202 30.36C33.8602 30.78 33.8602 31.34 33.5802 31.76Z" fill="#384866"/>
</svg>
