<svg width="54" height="54" viewBox="0 0 54 54" fill="none" xmlns="http://www.w3.org/2000/svg">
<circle opacity="0.8" cx="27" cy="27" r="26.5" stroke="#F6F6F7"/>
<path d="M36.52 20.98C33.16 15.8 26.3 14.26 20.98 17.48C15.8 20.7 14.12 27.7 17.48 32.88L17.76 33.3L16.64 37.5L20.84 36.38L21.26 36.66C23.08 37.64 25.04 38.2 27 38.2C29.1 38.2 31.2 37.64 33.02 36.52C38.2 33.16 39.74 26.3 36.52 20.98V20.98ZM33.58 31.76C33.02 32.6 32.32 33.16 31.34 33.3C30.78 33.3 30.08 33.58 27.28 32.46C24.9 31.34 22.94 29.52 21.54 27.42C20.7 26.44 20.28 25.18 20.14 23.92C20.14 22.8 20.56 21.82 21.26 21.12C21.54 20.84 21.82 20.7 22.1 20.7H22.8C23.08 20.7 23.36 20.7 23.5 21.26C23.78 21.96 24.48 23.64 24.48 23.78C24.62 23.92 24.62 24.2 24.48 24.34C24.62 24.62 24.48 24.9 24.34 25.04C24.2 25.18 24.06 25.46 23.92 25.6C23.64 25.74 23.5 26.02 23.64 26.3C24.2 27.14 24.9 27.98 25.6 28.68C26.44 29.38 27.28 29.94 28.26 30.36C28.54 30.5 28.82 30.5 28.96 30.22C29.1 29.94 29.8 29.24 30.08 28.96C30.36 28.68 30.5 28.68 30.78 28.82L33.02 29.94C33.3 30.08 33.58 30.22 33.72 30.36C33.86 30.78 33.86 31.34 33.58 31.76V31.76Z" fill="#FAFAFA"/>
</svg>
