<svg width="54" height="54" viewBox="0 0 54 54" fill="none" xmlns="http://www.w3.org/2000/svg">
<circle opacity="0.8" cx="27" cy="27" r="26.5" stroke="#FAFAFA"/>
<path d="M39 27.0776C39 27.1385 39 27.2078 38.9973 27.2881C38.9946 27.5125 38.9893 27.7645 38.9839 28.0332C38.9625 28.8061 38.925 29.5762 38.8661 30.3019C38.7857 31.3019 38.6679 32.1357 38.5071 32.7618C38.3375 33.4151 38.0051 34.0109 37.543 34.4898C37.081 34.9686 36.5055 35.3136 35.8741 35.4903C35.1161 35.7008 33.6321 35.831 31.5429 35.9114C30.5491 35.9501 29.4857 35.9751 28.4223 35.9889C28.05 35.9945 27.7045 35.9972 27.3938 36H26.6062C26.2955 35.9972 25.95 35.9945 25.5777 35.9889C24.5143 35.9751 23.4509 35.9501 22.4571 35.9114C20.3679 35.8283 18.8812 35.6981 18.1259 35.4903C17.4943 35.314 16.9186 34.9692 16.4565 34.4903C15.9943 34.0114 15.662 33.4153 15.4929 32.7618C15.3295 32.1357 15.2143 31.3019 15.1339 30.3019C15.075 29.5762 15.0375 28.8061 15.0161 28.0332C15.008 27.7645 15.0054 27.5125 15.0027 27.2881C15.0027 27.2078 15 27.1385 15 27.0776V26.9224C15 26.8615 15 26.7922 15.0027 26.7119C15.0054 26.4875 15.0107 26.2355 15.0161 25.9668C15.0375 25.1939 15.075 24.4238 15.1339 23.6981C15.2143 22.6981 15.3321 21.8643 15.4929 21.2382C15.8357 19.9114 16.8429 18.8643 18.1259 18.5097C18.8812 18.2992 20.3679 18.169 22.4571 18.0886C23.4509 18.0499 24.5143 18.0249 25.5777 18.0111C25.95 18.0055 26.2955 18.0028 26.6062 18H27.3938C27.7045 18.0028 28.05 18.0055 28.4223 18.0111C29.4857 18.0249 30.5491 18.0499 31.5429 18.0886C33.6321 18.1717 35.1187 18.3019 35.8741 18.5097C37.1571 18.8643 38.1643 19.9086 38.5071 21.2382C38.6705 21.8643 38.7857 22.6981 38.8661 23.6981C38.925 24.4238 38.9625 25.1939 38.9839 25.9668C38.992 26.2355 38.9946 26.4875 38.9973 26.7119C38.9973 26.7922 39 26.8615 39 26.9224V27.0776ZM37.0714 26.9335C37.0714 26.8753 37.0714 26.8116 37.0688 26.7368C37.0661 26.5208 37.0607 26.2825 37.0554 26.0249C37.0366 25.2881 36.9991 24.5512 36.9429 23.867C36.8705 22.9751 36.7688 22.2438 36.6429 21.7535C36.4768 21.1136 35.9893 20.6066 35.3732 20.4377C34.8107 20.2825 33.3937 20.1579 31.4679 20.0831C30.4929 20.0443 29.4429 20.0194 28.3955 20.0055C28.0286 20 27.6884 19.9972 27.383 19.9972H26.617L25.6045 20.0055C24.5571 20.0194 23.5098 20.0443 22.5321 20.0831C20.6063 20.1607 19.1866 20.2825 18.6268 20.4377C18.0107 20.6094 17.5232 21.1136 17.3571 21.7535C17.2313 22.2438 17.1295 22.9751 17.0571 23.867C17.0009 24.5512 16.9661 25.2881 16.9446 26.0249C16.9366 26.2825 16.9339 26.5235 16.9313 26.7368C16.9313 26.8116 16.9286 26.8781 16.9286 26.9335V27.0665C16.9286 27.1247 16.9286 27.1884 16.9313 27.2632C16.9339 27.4792 16.9393 27.7175 16.9446 27.9751C16.9634 28.7119 17.0009 29.4488 17.0571 30.133C17.1295 31.0249 17.2313 31.7562 17.3571 32.2465C17.5232 32.8864 18.0107 33.3934 18.6268 33.5623C19.1893 33.7175 20.6063 33.8421 22.5321 33.9169C23.5071 33.9557 24.5571 33.9806 25.6045 33.9945C25.9714 34 26.3116 34.0028 26.617 34.0028H27.383L28.3955 33.9945C29.4429 33.9806 30.4902 33.9557 31.4679 33.9169C33.3937 33.8393 34.8134 33.7175 35.3732 33.5623C35.9893 33.3906 36.4768 32.8864 36.6429 32.2465C36.7688 31.7562 36.8705 31.0249 36.9429 30.133C36.9991 29.4488 37.0339 28.7119 37.0554 27.9751C37.0634 27.7175 37.0661 27.4765 37.0688 27.2632C37.0688 27.1884 37.0714 27.1219 37.0714 27.0665V26.9335ZM24.6161 23.2881L30.8304 27.0277L24.6161 30.7119V23.2881Z" fill="#FAFAFA"/>
</svg>
